/* XPM */
static char * close_unfocus_xpm[] = {
"20 20 5 1",
" 	c None",
".	c #222222",
"+	c #333333",
"@	c #000000",
"#	c #333333",
"....................",
"....................",
"....................",
"....................",
"....................",
"....................",
"....................",
"....................",
"........+...+.......",
".........+@+..@.....",
"..........+@.@......",
".........+.+@.......",
"........+..@+@......",
"..........@...@.....",
"....................",
"....................",
"....................",
"....................",
"....................",
"####################"};
